# xmcd CD database file
#
# Track frame offsets:
#	150
#	13398
#	21798
#	30127
#	44701
#	55771
#	66695
#	77922
#	92259
#	99370
#	109311
#	118848
#	130637
#	142705
#	157481
#	165975
#	175998
#	185124
#	192934
#
# Disc length: 2725 seconds
#
# Revision: 0
# Processed by: cddbd v1.5.2PL0 Copyright (c) Steve Scherf et al.
# Submitted via: CDex 1.51
#
DISCID=050aa313
DTITLE=Julie London - The Very Best Of Julie London [CD1]
DYEAR=2006
DGENRE=Jazz
TTITLE0=Cry Me A River
TTITLE1=I Love You
TTITLE2=Remember
TTITLE3=Easy Street
TTITLE4=I'm Glad There Is You
TTITLE5=It Never Entered My Mind
TTITLE6=I'm In The Mood For Love
TTITLE7=Can't Help Lovin' Dat Man
TTITLE8=S'Wonderful
TTITLE9=How Deep Is The Ocean
TTITLE10=Gone With The Wind
TTITLE11=Where Or When
TTITLE12=Moments Like This
TTITLE13=I Should Care
TTITLE14=No Moon At All
TTITLE15=Mean To Me
TTITLE16=Say It Isn't So
TTITLE17=Laura
TTITLE18=I Lost My Sugar In Salt Lake City
EXTD=YEAR: 2006
EXTT0=
EXTT1=
EXTT2=
EXTT3=
EXTT4=
EXTT5=
EXTT6=
EXTT7=
EXTT8=
EXTT9=
EXTT10=
EXTT11=
EXTT12=
EXTT13=
EXTT14=
EXTT15=
EXTT16=
EXTT17=
EXTT18=
PLAYORDER=
